<?xml version="1.0" encoding="UTF-8"?>
<svg xmlns="http://www.w3.org/2000/svg" width="423" height="92" viewBox="0 0 423 92" fill="none">
  <g clip-path="url(#clip0_1_45)">
    <path fill-rule="evenodd" clip-rule="evenodd" d="M48 7.5L43.5 2.5H8C4.4 2.5 3.16667 5.83333 3 7.5V61C3 65 6.66667 66.3333 8.5 66.5H48L57.9889 83.5182L61.5 89.5L64.913 83.4617L74.5 66.5H114.5C118.9 66.5 119.667 62.8333 119.5 61V8.5C119.5 3.7 116.167 2.5 114.5 2.5H79L74.5 7.5H48ZM81.6722 8.5L78.9598 11.5138L77.1722 13.5H74.5H48H45.3278L43.5402 11.5138L40.8278 8.5H9V60.5H48H51.4355L53.1745 63.4628L61.4019 77.4799L69.2766 63.5477L70.9992 60.5H74.5H113.5V8.5H81.6722ZM28 37.5V48H33.5V37.5H44.5V32H33.5V21H28V32H17.5V37.5H28ZM97 24C97 26.7614 94.7614 29 92 29C89.2386 29 87 26.7614 87 24C87 21.2386 89.2386 19 92 19C94.7614 19 97 21.2386 97 24ZM107 35C107 37.7614 104.761 40 102 40C99.2386 40 97 37.7614 97 35C97 32.2386 99.2386 30 102 30C104.761 30 107 32.2386 107 35ZM92 51C94.7614 51 97 48.7614 97 46C97 43.2386 94.7614 41 92 41C89.2386 41 87 43.2386 87 46C87 48.7614 89.2386 51 92 51ZM87 35C87 37.7614 84.7614 40 82 40C79.2386 40 77 37.7614 77 35C77 32.2386 79.2386 30 82 30C84.7614 30 87 32.2386 87 35Z" fill="white"></path>
    <path d="M139.417 67V1.9H150.67V56.863H181.174V67H139.417ZM211.212 68.302C206.624 68.302 202.563 67.341 199.029 65.419C195.557 63.435 192.829 60.676 190.845 57.142C188.923 53.546 187.962 49.361 187.962 44.587V43.471C187.962 38.635 188.923 34.45 190.845 30.916C192.767 27.382 195.464 24.654 198.936 22.732C202.408 20.748 206.407 19.756 210.933 19.756C215.397 19.756 219.303 20.748 222.651 22.732C225.999 24.654 228.603 27.382 230.463 30.916C232.323 34.45 233.253 38.573 233.253 43.285V47.098H198.75C198.874 50.694 200.145 53.577 202.563 55.747C204.981 57.917 207.957 59.002 211.491 59.002C214.963 59.002 217.536 58.258 219.21 56.77C220.884 55.22 222.155 53.484 223.023 51.562L231.858 56.119C230.99 57.793 229.719 59.591 228.045 61.513C226.433 63.373 224.263 64.985 221.535 66.349C218.807 67.651 215.366 68.302 211.212 68.302ZM198.843 39.007H222.372C222.124 35.969 220.946 33.551 218.838 31.753C216.792 29.955 214.126 29.056 210.84 29.056C207.43 29.056 204.702 29.955 202.656 31.753C200.61 33.551 199.339 35.969 198.843 39.007ZM252.916 67L237.85 21.058H249.196L260.542 59.188H262.123L273.562 21.058H284.908L269.842 67H252.916ZM313.113 68.302C308.525 68.302 304.464 67.341 300.93 65.419C297.458 63.435 294.73 60.676 292.746 57.142C290.824 53.546 289.863 49.361 289.863 44.587V43.471C289.863 38.635 290.824 34.45 292.746 30.916C294.668 27.382 297.365 24.654 300.837 22.732C304.309 20.748 308.308 19.756 312.834 19.756C317.298 19.756 321.204 20.748 324.552 22.732C327.9 24.654 330.504 27.382 332.364 30.916C334.224 34.45 335.154 38.573 335.154 43.285V47.098H300.651C300.775 50.694 302.046 53.577 304.464 55.747C306.882 57.917 309.858 59.002 313.392 59.002C316.864 59.002 319.437 58.258 321.111 56.77C322.785 55.22 324.056 53.484 324.924 51.562L333.759 56.119C332.891 57.793 331.62 59.591 329.946 61.513C328.334 63.373 326.164 64.985 323.436 66.349C320.708 67.651 317.267 68.302 313.113 68.302ZM300.744 39.007H324.273C324.025 35.969 322.847 33.551 320.739 31.753C318.693 29.955 316.027 29.056 312.741 29.056C309.331 29.056 306.603 29.955 304.557 31.753C302.511 33.551 301.24 35.969 300.744 39.007ZM346.133 67V1.9H356.828V67H346.133ZM365.825 67L385.448 34.171L366.104 1.9H378.845L392.702 26.266H394.283L408.047 1.9H420.881L401.537 34.171L421.067 67H408.326L394.283 42.076H392.702L378.659 67H365.825Z" fill="white"></path>
  </g>
  <defs>
    <clipPath id="clip0_1_45">
      <rect width="423" height="92" fill="white"></rect>
    </clipPath>
  </defs>
</svg>
